# xmcd CD database file
#
# Track frame offsets:
#	150
#	14930
#	30075
#	45820
#	61070
#	74158
#	88733
#	102830
#	119050
#	134275
#	148280
#
# Disc length: 2138 seconds
#
# Revision: 0
# Processed by: cddbd v1.5.1PL0 Copyright (c) Steve Scherf et al.
# Submitted via: CDex 1.51
#
DISCID=9e08580b
DTITLE=Alfonzo Blackwell - Sax You Down Disc 1
DYEAR=1900
DGENRE=Jazz
TTITLE0=Take One
TTITLE1=Dance For Me
TTITLE2=Sax You Down
TTITLE3=Special Lady
TTITLE4=Just Between Us
TTITLE5=Smooth Character
TTITLE6=Before I Go
TTITLE7=Love Song
TTITLE8=For Your Love
TTITLE9=Your Touch
TTITLE10=Always There
EXTD=
EXTT0=
EXTT1=
EXTT2=
EXTT3=
EXTT4=
EXTT5=
EXTT6=
EXTT7=
EXTT8=
EXTT9=
EXTT10=
PLAYORDER=
